<svg aria-hidden="true" style="position: absolute; width: 0; height: 0; overflow: hidden;" version="1.1" xmlns="http://www.w3.org/2000/svg" xmlns:xlink="http://www.w3.org/1999/xlink">
<defs>
<symbol id="EASYPRINT1" viewBox="0 0 55 32">
<path fill="#d4edfc" style="fill: var(--color1, #d4edfc)" d="M4.558 4.646h45.714v16.421h-45.714z"></path>
<path fill="#727271" style="fill: var(--color2, #727271)" d="M5.179 27.259h0.619v-0.858h2.266v0.854h0.619v-1.381h-0.396v-3.031h-2.274l-0.094 1.505c-0.058 0.959-0.261 1.335-0.502 1.526h-0.238v1.385zM6.167 25.874c0.19-0.311 0.327-0.799 0.37-1.526l0.055-0.964h1.075v2.49h-1.501zM9.178 27.401h0.629v-1.421h0.026c0.099 0.195 0.306 0.468 0.764 0.468 0.628 0 1.1-0.499 1.1-1.378 0-0.889-0.485-1.372-1.101-1.372-0.47 0-0.667 0.283-0.762 0.475h-0.037v-0.441h-0.619v3.668zM9.795 25.067c0-0.518 0.222-0.854 0.627-0.854 0.418 0 0.634 0.356 0.634 0.854 0 0.5-0.219 0.865-0.634 0.865-0.401 0-0.627-0.347-0.627-0.865zM12.532 27.401c0.49 0 0.773-0.252 0.924-0.677l1.069-2.991h-0.669l-0.616 2.015h-0.028l-0.615-2.015h-0.668l0.968 2.724-0.054 0.144c-0.117 0.304-0.3 0.324-0.575 0.245l-0.146 0.49c0.085 0.035 0.238 0.066 0.41 0.066zM14.958 26.401h0.629v-1.006h0.307l0.731 1.006h0.761l-0.999-1.358 0.988-1.31h-0.757l-0.802 1.077h-0.229v-1.077h-0.629v2.668zM18.162 27.401c0.49 0 0.773-0.252 0.924-0.677l1.069-2.991h-0.669l-0.616 2.015h-0.028l-0.615-2.015h-0.668l0.968 2.724-0.054 0.144c-0.117 0.304-0.3 0.324-0.575 0.245l-0.146 0.49c0.085 0.035 0.238 0.066 0.41 0.066zM21.194 25.55v-1.817h-0.607v2.668h0.648l1.065-1.819v1.819h0.608v-2.668h-0.646l-1.068 1.817zM22.090 22.816c-0.002 0.17-0.099 0.321-0.344 0.321-0.248 0-0.342-0.154-0.342-0.321h-0.467c-0.002 0.407 0.312 0.681 0.809 0.681 0.501 0 0.815-0.274 0.815-0.681h-0.471zM24.619 25.67c0.015 0.495 0.469 0.783 1.086 0.783 0.632 0 1.089-0.301 1.089-0.792 0-0.36-0.245-0.606-0.561-0.625v-0.028c0.306-0.081 0.5-0.272 0.5-0.561 0-0.45-0.389-0.748-1.014-0.748-0.584 0-1.023 0.302-1.032 0.767h0.62c0.007-0.178 0.191-0.303 0.441-0.303s0.401 0.134 0.401 0.331c0 0.183-0.139 0.318-0.399 0.318h-0.408v0.447h0.408c0.262 0 0.434 0.148 0.434 0.363 0 0.244-0.214 0.361-0.483 0.361-0.266 0-0.447-0.114-0.459-0.312h-0.624zM28.32 26.401h0.195c0.573 0 0.832-0.403 0.874-1.292l0.042-0.86h0.766v2.152h0.607v-2.668h-1.945l-0.047 1.181c-0.029 0.748-0.126 0.969-0.403 0.969h-0.092l0.003 0.518zM32.619 26.453c0.622 0 1.049-0.304 1.161-0.768l-0.588-0.066c-0.085 0.226-0.294 0.344-0.564 0.344-0.407 0-0.676-0.267-0.681-0.724h1.858v-0.193c0-0.936-0.562-1.347-1.219-1.347-0.765 0-1.263 0.561-1.263 1.384 0 0.837 0.492 1.37 1.295 1.37zM31.949 24.815c0.019-0.341 0.271-0.628 0.646-0.628 0.362 0 0.605 0.264 0.608 0.628h-1.254zM36.101 23.733h-1.765v2.668h0.615v-2.152h1.149v-0.516zM36.603 26.401h0.629v-1.006h0.307l0.731 1.006h0.761l-0.999-1.358 0.988-1.31h-0.757l-0.802 1.077h-0.229v-1.077h-0.629v2.668zM39.387 26.401h0.629v-2.668h-0.629v2.668zM39.704 23.355c0.2 0 0.363-0.153 0.363-0.341 0-0.189-0.163-0.342-0.363-0.342-0.201 0-0.364 0.153-0.364 0.342 0 0.187 0.163 0.341 0.364 0.341zM41.826 26.453c0.67 0 1.097-0.398 1.143-0.964h-0.601c-0.054 0.287-0.261 0.452-0.537 0.452-0.392 0-0.646-0.328-0.646-0.873 0-0.539 0.258-0.862 0.646-0.862 0.302 0 0.488 0.194 0.537 0.452h0.601c-0.043-0.579-0.495-0.959-1.146-0.959-0.782 0-1.275 0.564-1.275 1.378 0 0.808 0.481 1.376 1.278 1.376zM43.295 24.249h0.863v2.152h0.608v-2.152h0.863v-0.516h-2.335v0.516zM46.602 23.733h-0.631v2.668h0.631v-1.058h0.504c0.097 0.668 0.558 1.11 1.24 1.11 0.77 0 1.258-0.565 1.259-1.381-0.002-0.816-0.49-1.374-1.259-1.374-0.691 0-1.155 0.448-1.244 1.127h-0.5v-1.092zM48.346 25.932c-0.459 0-0.655-0.376-0.655-0.86s0.196-0.858 0.655-0.858c0.456 0 0.651 0.377 0.651 0.858 0 0.483-0.195 0.86-0.651 0.86z"></path>
<path fill="#ffed00" style="fill: var(--color3, #ffed00)" d="M11.572 20.468v-3.1h-1.131v2.025h-1.184v-1.866h-1.132v1.866h-1.181v-2.025h-1.131v3.1h5.758zM11.572 16.155l-1.209-0.293v-1.534l1.209-0.293v-1.154l-5.758 1.5v1.43l5.758 1.5v-1.154zM9.307 15.606l-2.041-0.493v-0.035l2.041-0.495v1.023zM7.541 10.557v-1.029c-1.077 0.009-1.805 0.67-1.805 1.704 0 1.016 0.716 1.747 1.788 1.741 0.873 0.002 1.366-0.472 1.594-1.24l0.14-0.465c0.146-0.488 0.318-0.708 0.641-0.712 0.352 0.004 0.596 0.259 0.596 0.691 0 0.475-0.286 0.787-0.84 0.811v1.029c1.346-0.012 1.99-0.736 1.99-1.853 0-1.107-0.649-1.762-1.743-1.767-0.918 0.005-1.482 0.485-1.731 1.361l-0.112 0.382c-0.113 0.404-0.288 0.66-0.631 0.652-0.314-0.003-0.542-0.211-0.542-0.628 0-0.419 0.244-0.649 0.656-0.677zM5.814 9.565l3.836-1.626h1.922v-1.068h-1.922l-3.836-1.626v1.2l2.409 0.94v0.039l-2.409 0.94v1.2z"></path>
<path fill="#00a0e3" style="fill: var(--color4, #00a0e3)" d="M13.099 19.037h2.168v-3.838h1.471c2.053 0 3.335-1.677 3.335-4.243 0-2.541-1.255-4.28-3.269-4.28h-3.704v12.36zM15.267 12.845v-3.761h1.068c0.972 0 1.492 0.725 1.492 1.872 0 1.141-0.52 1.889-1.492 1.889h-1.068zM21.137 19.037h2.168v-4.231h1.112l1.638 4.231h2.365l-1.862-4.707c0.984-0.615 1.553-1.83 1.553-3.538 0-2.541-1.255-4.115-3.269-4.115h-3.704v12.36zM23.304 12.452v-3.368h1.068c0.972 0 1.492 0.564 1.492 1.708 0 1.147-0.52 1.66-1.492 1.66h-1.068zM31.465 6.677h-2.168v12.36h2.168v-12.36zM40.453 6.677h-2.162v7.123h-0.076l-3.528-7.123h-1.866v12.36h2.168v-7.132h0.057l3.567 7.132h1.839v-12.36zM41.517 9.104h2.722v9.933h2.137v-9.933h2.718v-2.427h-7.578v2.427z"></path>
</symbol>
<symbol id="EASYPRINT2" viewBox="0 0 55 32">
<path fill="#00a0e3" style="fill: var(--color4, #00a0e3)" d="M4.554 4.651h45.714v16.421h-45.714z"></path>
<path fill="#727271" style="fill: var(--color2, #727271)" d="M5.175 27.264h0.619v-0.858h2.266v0.854h0.619v-1.381h-0.396v-3.031h-2.274l-0.094 1.505c-0.058 0.959-0.261 1.335-0.502 1.526h-0.238v1.385zM6.163 25.879c0.19-0.311 0.327-0.799 0.37-1.526l0.055-0.964h1.075v2.49h-1.501zM9.173 27.405h0.629v-1.421h0.026c0.099 0.195 0.306 0.468 0.764 0.468 0.628 0 1.1-0.499 1.1-1.378 0-0.889-0.485-1.372-1.101-1.372-0.47 0-0.667 0.283-0.762 0.475h-0.037v-0.441h-0.619v3.668zM9.79 25.072c0-0.518 0.222-0.854 0.627-0.854 0.418 0 0.634 0.356 0.634 0.854 0 0.5-0.219 0.865-0.634 0.865-0.401 0-0.627-0.347-0.627-0.865zM12.528 27.405c0.49 0 0.773-0.252 0.924-0.677l1.069-2.991h-0.669l-0.616 2.015h-0.028l-0.615-2.015h-0.668l0.968 2.724-0.054 0.144c-0.117 0.304-0.3 0.324-0.575 0.245l-0.146 0.49c0.085 0.035 0.238 0.066 0.41 0.066zM14.954 26.405h0.629v-1.006h0.307l0.731 1.006h0.761l-0.999-1.358 0.988-1.31h-0.757l-0.802 1.077h-0.229v-1.077h-0.629v2.668zM18.157 27.405c0.49 0 0.773-0.252 0.924-0.677l1.069-2.991h-0.669l-0.616 2.015h-0.028l-0.615-2.015h-0.668l0.968 2.724-0.054 0.144c-0.117 0.304-0.3 0.324-0.575 0.245l-0.146 0.49c0.085 0.035 0.238 0.066 0.41 0.066zM21.19 25.554v-1.817h-0.607v2.668h0.648l1.065-1.819v1.819h0.608v-2.668h-0.646l-1.068 1.817zM22.086 22.82c-0.002 0.17-0.099 0.321-0.344 0.321-0.248 0-0.342-0.154-0.342-0.321h-0.467c-0.002 0.407 0.312 0.681 0.809 0.681 0.501 0 0.815-0.274 0.815-0.681h-0.471zM24.614 25.674c0.015 0.495 0.469 0.783 1.086 0.783 0.632 0 1.089-0.301 1.089-0.792 0-0.36-0.245-0.606-0.561-0.625v-0.028c0.306-0.081 0.5-0.272 0.5-0.561 0-0.45-0.389-0.748-1.014-0.748-0.584 0-1.023 0.302-1.032 0.767h0.62c0.007-0.178 0.191-0.303 0.441-0.303s0.401 0.134 0.401 0.331c0 0.183-0.139 0.318-0.399 0.318h-0.408v0.447h0.408c0.262 0 0.434 0.148 0.434 0.363 0 0.244-0.214 0.361-0.483 0.361-0.266 0-0.447-0.114-0.459-0.312h-0.624zM28.315 26.405h0.195c0.573 0 0.832-0.403 0.874-1.292l0.042-0.86h0.766v2.152h0.607v-2.668h-1.945l-0.047 1.181c-0.029 0.748-0.126 0.969-0.403 0.969h-0.092l0.003 0.518zM32.615 26.457c0.622 0 1.049-0.304 1.161-0.768l-0.588-0.066c-0.085 0.226-0.294 0.344-0.564 0.344-0.407 0-0.676-0.267-0.681-0.724h1.858v-0.193c0-0.936-0.562-1.347-1.219-1.347-0.765 0-1.263 0.561-1.263 1.384 0 0.837 0.492 1.37 1.295 1.37zM31.945 24.82c0.019-0.341 0.271-0.628 0.646-0.628 0.362 0 0.605 0.264 0.608 0.628h-1.254zM36.097 23.737h-1.765v2.668h0.615v-2.152h1.149v-0.516zM36.599 26.405h0.629v-1.006h0.307l0.731 1.006h0.761l-0.999-1.358 0.988-1.31h-0.757l-0.802 1.077h-0.229v-1.077h-0.629v2.668zM39.383 26.405h0.629v-2.668h-0.629v2.668zM39.699 23.359c0.2 0 0.363-0.153 0.363-0.341 0-0.189-0.163-0.342-0.363-0.342-0.201 0-0.364 0.153-0.364 0.342 0 0.187 0.163 0.341 0.364 0.341zM41.822 26.457c0.67 0 1.097-0.398 1.143-0.964h-0.601c-0.054 0.287-0.261 0.452-0.537 0.452-0.392 0-0.646-0.328-0.646-0.873 0-0.539 0.258-0.862 0.646-0.862 0.302 0 0.488 0.194 0.537 0.452h0.601c-0.043-0.579-0.495-0.959-1.146-0.959-0.782 0-1.275 0.564-1.275 1.378 0 0.808 0.481 1.376 1.278 1.376zM43.291 24.253h0.863v2.152h0.608v-2.152h0.863v-0.516h-2.335v0.516zM46.598 23.737h-0.631v2.668h0.631v-1.058h0.504c0.097 0.668 0.558 1.11 1.24 1.11 0.77 0 1.258-0.565 1.259-1.381-0.002-0.816-0.49-1.374-1.259-1.374-0.691 0-1.155 0.448-1.244 1.127h-0.5v-1.092zM48.342 25.936c-0.459 0-0.655-0.376-0.655-0.86s0.196-0.858 0.655-0.858c0.456 0 0.651 0.377 0.651 0.858 0 0.483-0.195 0.86-0.651 0.86z"></path>
<path fill="#ffed00" style="fill: var(--color3, #ffed00)" d="M11.568 20.472v-3.1h-1.131v2.025h-1.184v-1.866h-1.132v1.866h-1.181v-2.025h-1.131v3.1h5.758zM11.568 16.159l-1.209-0.293v-1.534l1.209-0.293v-1.154l-5.758 1.5v1.43l5.758 1.5v-1.154zM9.303 15.61l-2.041-0.493v-0.035l2.041-0.495v1.023zM7.537 10.561v-1.029c-1.077 0.009-1.805 0.67-1.805 1.704 0 1.016 0.716 1.747 1.788 1.741 0.873 0.002 1.366-0.472 1.594-1.24l0.14-0.465c0.146-0.488 0.318-0.708 0.641-0.712 0.352 0.004 0.596 0.259 0.596 0.691 0 0.475-0.286 0.787-0.841 0.811v1.029c1.346-0.012 1.99-0.736 1.99-1.853 0-1.107-0.649-1.762-1.743-1.767-0.918 0.005-1.482 0.485-1.731 1.361l-0.112 0.382c-0.113 0.404-0.288 0.66-0.631 0.652-0.314-0.003-0.542-0.211-0.542-0.628 0-0.419 0.244-0.649 0.656-0.677zM5.81 9.569l3.836-1.626h1.922v-1.068h-1.922l-3.836-1.626v1.2l2.409 0.94v0.039l-2.409 0.94v1.2z"></path>
<path fill="#ffed00" style="fill: var(--color3, #ffed00)" d="M13.095 19.041h2.168v-3.838h1.471c2.053 0 3.335-1.677 3.335-4.243 0-2.541-1.255-4.28-3.269-4.28h-3.705v12.36zM15.262 12.85v-3.761h1.068c0.972 0 1.492 0.725 1.492 1.872 0 1.141-0.52 1.889-1.492 1.889h-1.068zM21.132 19.041h2.168v-4.231h1.112l1.638 4.231h2.365l-1.862-4.707c0.984-0.615 1.553-1.83 1.553-3.538 0-2.541-1.255-4.115-3.269-4.115h-3.705v12.36zM23.3 12.456v-3.368h1.068c0.972 0 1.492 0.564 1.492 1.708 0 1.147-0.52 1.66-1.492 1.66h-1.068zM31.461 6.681h-2.168v12.36h2.168v-12.36zM40.448 6.681h-2.161v7.123h-0.076l-3.528-7.123h-1.866v12.36h2.168v-7.132h0.057l3.567 7.132h1.839v-12.36zM41.513 9.108h2.722v9.933h2.137v-9.933h2.718v-2.427h-7.578v2.427z"></path>
</symbol>
</defs>
</svg>
